<svg width="400" height="300" viewBox="0 0 400 300" fill="none" xmlns="http://www.w3.org/2000/svg">
<g clip-path="url(#clip0_254_18)">
<path d="M233 52.8865C240.497 52.8865 246.574 46.6196 246.574 38.8889C246.574 31.1583 240.497 24.8913 233 24.8913C225.503 24.8913 219.426 31.1583 219.426 38.8889C219.426 46.6196 225.503 52.8865 233 52.8865Z" fill="#F2F2F2"/>
<path d="M338.296 260.627C358.472 244.779 368.109 218.15 362.076 192.747C361.926 192.116 361.768 191.486 361.601 190.858C357.602 175.779 347.706 161.447 333.285 156.629C321.175 152.584 307.958 155.695 295.325 154.086C270.526 150.928 251.299 130.236 237.771 108.572C224.243 86.9075 213.846 62.6573 195.87 44.7593C166.24 15.2576 117.905 8.90582 81.1678 28.1093C44.4303 47.3128 21.0289 89.9173 22.0269 132.378C23.025 174.839 47.4691 215.434 82.9681 236.973C96.0091 244.885 111.092 250.49 126.103 248.529C139.127 246.827 150.962 239.61 163.925 237.468C184.306 234.099 204.558 243.602 222.186 254.675C239.814 265.749 256.842 278.874 276.874 284.008C296.325 288.992 320.423 274.665 338.296 260.627Z" fill="#F2F2F2"/>
<path d="M309.309 29.0009C308.867 28.6968 308.42 28.4085 307.978 28.1149C295.192 19.6829 281.489 12.8329 267.15 7.70625L263.825 55.0031H242.748V0.802024C241.421 0.518935 240.084 0.251574 238.747 -6.10352e-05V55.0031H213.699C199.91 55.0031 186.686 49.3545 176.935 39.3C167.185 29.2454 161.707 15.6085 161.707 1.38923C160.365 1.68805 159.033 2.00779 157.701 2.34854V55.0031H137.3L134.133 9.90283C119.397 15.7304 105.408 23.394 92.4765 32.723C92.2528 32.8802 92.0291 33.0428 91.8105 33.2C90.687 34.0126 89.5788 34.8409 88.4756 35.6797V216.118H148.601L147.539 200.941L141.692 117.613H259.428L253.581 200.941L252.519 216.118H311.978V30.8252C311.094 30.2066 310.204 29.5985 309.309 29.0009ZM157.701 103.852H140.727L137.59 59.1341H157.701V103.852ZM238.747 103.852H210.237V102.966C210.237 102.54 210.156 102.118 209.997 101.725C209.839 101.331 209.607 100.974 209.315 100.673C209.023 100.372 208.676 100.134 208.294 99.9711C207.912 99.8086 207.503 99.7253 207.09 99.726H194.696C194.283 99.7258 193.875 99.8095 193.493 99.9723C193.112 100.135 192.766 100.374 192.474 100.675C192.182 100.975 191.951 101.333 191.793 101.726C191.635 102.119 191.554 102.54 191.554 102.966V103.852H161.707V59.1341H238.747V103.852ZM242.748 103.852V59.1341H263.535L260.399 103.852H242.748Z" fill="#3F3D56"/>
<path d="M0 227.672C4.41639 233.069 9.19321 238.14 14.2955 242.849L385.704 243.373C390.807 238.664 395.584 233.593 400 228.197L0 227.672Z" fill="#3F3D56"/>
<path d="M251.864 179.076V224.005C251.864 224.578 252.085 225.127 252.478 225.531C252.87 225.936 253.403 226.164 253.958 226.164H318.524C319.079 226.164 319.611 225.936 320.004 225.531C320.397 225.127 320.617 224.578 320.618 224.005V179.076C320.616 178.504 320.395 177.955 320.003 177.551C319.61 177.147 319.078 176.919 318.524 176.919H253.958C253.403 176.919 252.871 177.147 252.479 177.551C252.086 177.955 251.865 178.504 251.864 179.076Z" fill="#3F3D56"/>
<path d="M253.379 179.635V223.451C253.379 223.757 253.497 224.05 253.707 224.266C253.917 224.483 254.201 224.604 254.498 224.605H317.987C318.284 224.604 318.568 224.483 318.778 224.266C318.987 224.05 319.106 223.757 319.106 223.451V179.635C319.106 179.328 318.988 179.035 318.778 178.818C318.569 178.601 318.284 178.479 317.987 178.478H254.498C254.201 178.479 253.916 178.601 253.707 178.818C253.497 179.035 253.379 179.328 253.379 179.635Z" fill="#6C63FF"/>
<path d="M250.514 232.767C250.632 232.92 250.782 233.044 250.953 233.128C251.124 233.213 251.312 233.256 251.502 233.255H320.637C320.826 233.255 321.012 233.211 321.183 233.127C321.354 233.043 321.504 232.921 321.623 232.769C321.742 232.618 321.827 232.441 321.871 232.252C321.916 232.062 321.919 231.865 321.88 231.674L320.807 226.417C320.762 226.203 320.667 226.003 320.528 225.837C320.39 225.671 320.213 225.542 320.015 225.464C319.871 225.406 319.718 225.376 319.563 225.377H252.571C252.416 225.376 252.263 225.406 252.119 225.464C251.92 225.542 251.744 225.671 251.606 225.837C251.467 226.003 251.371 226.203 251.327 226.417L250.254 231.674C250.216 231.865 250.219 232.062 250.264 232.251C250.309 232.44 250.394 232.617 250.514 232.767Z" fill="#2F2E41"/>
<path d="M317.193 227.641H318.826C318.963 227.641 319.074 227.526 319.074 227.385V226.579C319.074 226.438 318.963 226.323 318.826 226.323H317.193C317.056 226.323 316.945 226.438 316.945 226.579V227.385C316.945 227.526 317.056 227.641 317.193 227.641Z" fill="#3F3D56"/>
<path d="M312.933 227.641H314.566C314.703 227.641 314.814 227.526 314.814 227.385V226.579C314.814 226.438 314.703 226.323 314.566 226.323H312.933C312.796 226.323 312.685 226.438 312.685 226.579V227.385C312.685 227.526 312.796 227.641 312.933 227.641Z" fill="#3F3D56"/>
<path d="M308.676 227.641H310.309C310.446 227.641 310.557 227.526 310.557 227.385V226.579C310.557 226.438 310.446 226.323 310.309 226.323H308.676C308.539 226.323 308.428 226.438 308.428 226.579V227.385C308.428 227.526 308.539 227.641 308.676 227.641Z" fill="#3F3D56"/>
<path d="M304.416 227.641H306.049C306.186 227.641 306.297 227.526 306.297 227.385V226.579C306.297 226.438 306.186 226.323 306.049 226.323H304.416C304.279 226.323 304.168 226.438 304.168 226.579V227.385C304.168 227.526 304.279 227.641 304.416 227.641Z" fill="#3F3D56"/>
<path d="M300.157 227.641H301.79C301.927 227.641 302.039 227.526 302.039 227.385V226.579C302.039 226.438 301.927 226.323 301.79 226.323H300.157C300.02 226.323 299.909 226.438 299.909 226.579V227.385C299.909 227.526 300.02 227.641 300.157 227.641Z" fill="#3F3D56"/>
<path d="M295.899 227.641H297.532C297.669 227.641 297.78 227.526 297.78 227.385V226.579C297.78 226.438 297.669 226.323 297.532 226.323H295.899C295.762 226.323 295.65 226.438 295.65 226.579V227.385C295.65 227.526 295.762 227.641 295.899 227.641Z" fill="#3F3D56"/>
<path d="M291.639 227.641H293.272C293.409 227.641 293.52 227.526 293.52 227.385V226.579C293.52 226.438 293.409 226.323 293.272 226.323H291.639C291.502 226.323 291.39 226.438 291.39 226.579V227.385C291.39 227.526 291.502 227.641 291.639 227.641Z" fill="#3F3D56"/>
<path d="M287.382 227.641H289.014C289.152 227.641 289.263 227.526 289.263 227.385V226.579C289.263 226.438 289.152 226.323 289.014 226.323H287.382C287.244 226.323 287.133 226.438 287.133 226.579V227.385C287.133 227.526 287.244 227.641 287.382 227.641Z" fill="#3F3D56"/>
<path d="M283.122 227.641H284.755C284.892 227.641 285.003 227.526 285.003 227.385V226.579C285.003 226.438 284.892 226.323 284.755 226.323H283.122C282.985 226.323 282.874 226.438 282.874 226.579V227.385C282.874 227.526 282.985 227.641 283.122 227.641Z" fill="#3F3D56"/>
<path d="M278.864 227.641H280.497C280.634 227.641 280.745 227.526 280.745 227.385V226.579C280.745 226.438 280.634 226.323 280.497 226.323H278.864C278.727 226.323 278.616 226.438 278.616 226.579V227.385C278.616 227.526 278.727 227.641 278.864 227.641Z" fill="#3F3D56"/>
<path d="M274.605 227.641H276.238C276.375 227.641 276.486 227.526 276.486 227.385V226.579C276.486 226.438 276.375 226.323 276.238 226.323H274.605C274.468 226.323 274.357 226.438 274.357 226.579V227.385C274.357 227.526 274.468 227.641 274.605 227.641Z" fill="#3F3D56"/>
<path d="M270.347 227.641H271.98C272.117 227.641 272.228 227.526 272.228 227.385V226.579C272.228 226.438 272.117 226.323 271.98 226.323H270.347C270.21 226.323 270.099 226.438 270.099 226.579V227.385C270.099 227.526 270.21 227.641 270.347 227.641Z" fill="#3F3D56"/>
<path d="M266.088 227.641H267.721C267.858 227.641 267.969 227.526 267.969 227.385V226.579C267.969 226.438 267.858 226.323 267.721 226.323H266.088C265.951 226.323 265.84 226.438 265.84 226.579V227.385C265.84 227.526 265.951 227.641 266.088 227.641Z" fill="#3F3D56"/>
<path d="M261.829 227.641H263.462C263.599 227.641 263.71 227.526 263.71 227.385V226.579C263.71 226.438 263.599 226.323 263.462 226.323H261.829C261.692 226.323 261.581 226.438 261.581 226.579V227.385C261.581 227.526 261.692 227.641 261.829 227.641Z" fill="#3F3D56"/>
<path d="M257.571 227.641H259.204C259.341 227.641 259.452 227.526 259.452 227.385V226.579C259.452 226.438 259.341 226.323 259.204 226.323H257.571C257.434 226.323 257.323 226.438 257.323 226.579V227.385C257.323 227.526 257.434 227.641 257.571 227.641Z" fill="#3F3D56"/>
<path d="M253.313 227.641H254.946C255.083 227.641 255.194 227.526 255.194 227.385V226.579C255.194 226.438 255.083 226.323 254.946 226.323H253.313C253.176 226.323 253.065 226.438 253.065 226.579V227.385C253.065 227.526 253.176 227.641 253.313 227.641Z" fill="#3F3D56"/>
<path d="M317.243 229.836H318.876C319.013 229.836 319.125 229.722 319.125 229.58V228.775C319.125 228.634 319.013 228.519 318.876 228.519H317.243C317.106 228.519 316.995 228.634 316.995 228.775V229.58C316.995 229.722 317.106 229.836 317.243 229.836Z" fill="#3F3D56"/>
<path d="M312.983 229.836H314.616C314.753 229.836 314.864 229.722 314.864 229.58V228.775C314.864 228.634 314.753 228.519 314.616 228.519H312.983C312.846 228.519 312.735 228.634 312.735 228.775V229.58C312.735 229.722 312.846 229.836 312.983 229.836Z" fill="#3F3D56"/>
<path d="M308.726 229.836H310.359C310.496 229.836 310.607 229.722 310.607 229.58V228.775C310.607 228.634 310.496 228.519 310.359 228.519H308.726C308.589 228.519 308.478 228.634 308.478 228.775V229.58C308.478 229.722 308.589 229.836 308.726 229.836Z" fill="#3F3D56"/>
<path d="M304.466 229.836H306.099C306.236 229.836 306.347 229.722 306.347 229.58V228.775C306.347 228.634 306.236 228.519 306.099 228.519H304.466C304.329 228.519 304.218 228.634 304.218 228.775V229.58C304.218 229.722 304.329 229.836 304.466 229.836Z" fill="#3F3D56"/>
<path d="M300.206 229.836H301.839C301.976 229.836 302.087 229.722 302.087 229.58V228.775C302.087 228.634 301.976 228.519 301.839 228.519H300.206C300.069 228.519 299.958 228.634 299.958 228.775V229.58C299.958 229.722 300.069 229.836 300.206 229.836Z" fill="#3F3D56"/>
<path d="M295.949 229.836H297.582C297.719 229.836 297.83 229.722 297.83 229.58V228.775C297.83 228.634 297.719 228.519 297.582 228.519H295.949C295.812 228.519 295.701 228.634 295.701 228.775V229.58C295.701 229.722 295.812 229.836 295.949 229.836Z" fill="#3F3D56"/>
<path d="M291.689 229.836H293.322C293.459 229.836 293.57 229.722 293.57 229.58V228.775C293.57 228.634 293.459 228.519 293.322 228.519H291.689C291.552 228.519 291.441 228.634 291.441 228.775V229.58C291.441 229.722 291.552 229.836 291.689 229.836Z" fill="#3F3D56"/>
<path d="M287.432 229.836H289.065C289.202 229.836 289.313 229.722 289.313 229.58V228.775C289.313 228.634 289.202 228.519 289.065 228.519H287.432C287.295 228.519 287.184 228.634 287.184 228.775V229.58C287.184 229.722 287.295 229.836 287.432 229.836Z" fill="#3F3D56"/>
<path d="M283.172 229.836H284.805C284.942 229.836 285.053 229.722 285.053 229.58V228.775C285.053 228.634 284.942 228.519 284.805 228.519H283.172C283.035 228.519 282.924 228.634 282.924 228.775V229.58C282.924 229.722 283.035 229.836 283.172 229.836Z" fill="#3F3D56"/>
<path d="M278.915 229.836H280.548C280.685 229.836 280.796 229.722 280.796 229.58V228.775C280.796 228.634 280.685 228.519 280.548 228.519H278.915C278.778 228.519 278.667 228.634 278.667 228.775V229.58C278.667 229.722 278.778 229.836 278.915 229.836Z" fill="#3F3D56"/>
<path d="M274.656 229.836H276.288C276.426 229.836 276.537 229.722 276.537 229.58V228.775C276.537 228.634 276.426 228.519 276.288 228.519H274.656C274.518 228.519 274.407 228.634 274.407 228.775V229.58C274.407 229.722 274.518 229.836 274.656 229.836Z" fill="#3F3D56"/>
<path d="M270.397 229.836H272.03C272.167 229.836 272.278 229.722 272.278 229.58V228.775C272.278 228.634 272.167 228.519 272.03 228.519H270.397C270.26 228.519 270.149 228.634 270.149 228.775V229.58C270.149 229.722 270.26 229.836 270.397 229.836Z" fill="#3F3D56"/>
<path d="M266.138 229.836H267.771C267.908 229.836 268.02 229.722 268.02 229.58V228.775C268.02 228.634 267.908 228.519 267.771 228.519H266.138C266.001 228.519 265.89 228.634 265.89 228.775V229.58C265.89 229.722 266.001 229.836 266.138 229.836Z" fill="#3F3D56"/>
<path d="M261.88 229.836H263.513C263.65 229.836 263.761 229.722 263.761 229.58V228.775C263.761 228.634 263.65 228.519 263.513 228.519H261.88C261.743 228.519 261.632 228.634 261.632 228.775V229.58C261.632 229.722 261.743 229.836 261.88 229.836Z" fill="#3F3D56"/>
<path d="M257.622 229.836H259.255C259.392 229.836 259.503 229.722 259.503 229.58V228.775C259.503 228.634 259.392 228.519 259.255 228.519H257.622C257.485 228.519 257.374 228.634 257.374 228.775V229.58C257.374 229.722 257.485 229.836 257.622 229.836Z" fill="#3F3D56"/>
<path d="M253.362 229.836H254.995C255.132 229.836 255.243 229.722 255.243 229.58V228.775C255.243 228.634 255.132 228.519 254.995 228.519H253.362C253.225 228.519 253.114 228.634 253.114 228.775V229.58C253.114 229.722 253.225 229.836 253.362 229.836Z" fill="#3F3D56"/>
<path d="M281.895 232.471H298.433C298.571 232.471 298.682 232.357 298.682 232.215V231.41C298.682 231.268 298.571 231.154 298.433 231.154H281.895C281.758 231.154 281.647 231.268 281.647 231.41V232.215C281.647 232.357 281.758 232.471 281.895 232.471Z" fill="#3F3D56"/>
<path d="M264.374 188.064H262.928C262.49 188.064 262.134 188.43 262.134 188.882C262.134 189.334 262.49 189.701 262.928 189.701H264.374C264.812 189.701 265.167 189.334 265.167 188.882C265.167 188.43 264.812 188.064 264.374 188.064Z" fill="white"/>
<path d="M280.907 188.064H279.462C279.024 188.064 278.668 188.43 278.668 188.882C278.668 189.334 279.024 189.701 279.462 189.701H280.907C281.346 189.701 281.701 189.334 281.701 188.882C281.701 188.43 281.346 188.064 280.907 188.064Z" fill="white"/>
<path d="M285.592 188.064H284.147C283.708 188.064 283.353 188.43 283.353 188.882C283.353 189.334 283.708 189.701 284.147 189.701H285.592C286.031 189.701 286.386 189.334 286.386 188.882C286.386 188.43 286.031 188.064 285.592 188.064Z" fill="white"/>
<path d="M276.411 187.928H267.426C266.987 187.928 266.632 188.294 266.632 188.746C266.632 189.198 266.987 189.564 267.426 189.564H276.411C276.849 189.564 277.204 189.198 277.204 188.746C277.204 188.294 276.849 187.928 276.411 187.928Z" fill="white"/>
<path d="M298.456 187.928H289.471C289.033 187.928 288.677 188.294 288.677 188.746C288.677 189.198 289.033 189.564 289.471 189.564H298.456C298.894 189.564 299.25 189.198 299.25 188.746C299.25 188.294 298.894 187.928 298.456 187.928Z" fill="white"/>
<path d="M268.782 191.758H267.337C266.899 191.758 266.543 192.125 266.543 192.577C266.543 193.029 266.899 193.395 267.337 193.395H268.782C269.221 193.395 269.576 193.029 269.576 192.577C269.576 192.125 269.221 191.758 268.782 191.758Z" fill="white"/>
<path d="M285.316 191.758H283.87C283.432 191.758 283.077 192.125 283.077 192.577C283.077 193.029 283.432 193.395 283.87 193.395H285.316C285.754 193.395 286.11 193.029 286.11 192.577C286.11 192.125 285.754 191.758 285.316 191.758Z" fill="white"/>
<path d="M290 191.758H288.555C288.116 191.758 287.761 192.125 287.761 192.577C287.761 193.029 288.116 193.395 288.555 193.395H290C290.439 193.395 290.794 193.029 290.794 192.577C290.794 192.125 290.439 191.758 290 191.758Z" fill="white"/>
<path d="M280.818 191.622H271.833C271.395 191.622 271.04 191.988 271.04 192.44C271.04 192.892 271.395 193.258 271.833 193.258H280.818C281.257 193.258 281.612 192.892 281.612 192.44C281.612 191.988 281.257 191.622 280.818 191.622Z" fill="white"/>
<path d="M302.864 191.622H293.879C293.441 191.622 293.085 191.988 293.085 192.44C293.085 192.892 293.441 193.258 293.879 193.258H302.864C303.302 193.258 303.658 192.892 303.658 192.44C303.658 191.988 303.302 191.622 302.864 191.622Z" fill="white"/>
<path d="M273.192 195.452H271.747C271.308 195.452 270.953 195.819 270.953 196.271C270.953 196.723 271.308 197.089 271.747 197.089H273.192C273.631 197.089 273.986 196.723 273.986 196.271C273.986 195.819 273.631 195.452 273.192 195.452Z" fill="white"/>
<path d="M289.727 195.452H288.281C287.843 195.452 287.487 195.819 287.487 196.271C287.487 196.723 287.843 197.089 288.281 197.089H289.727C290.165 197.089 290.52 196.723 290.52 196.271C290.52 195.819 290.165 195.452 289.727 195.452Z" fill="white"/>
<path d="M294.411 195.452H292.965C292.527 195.452 292.172 195.819 292.172 196.271C292.172 196.723 292.527 197.089 292.965 197.089H294.411C294.849 197.089 295.205 196.723 295.205 196.271C295.205 195.819 294.849 195.452 294.411 195.452Z" fill="white"/>
<path d="M285.229 195.316H276.244C275.805 195.316 275.45 195.682 275.45 196.134C275.45 196.586 275.805 196.953 276.244 196.953H285.229C285.667 196.953 286.022 196.586 286.022 196.134C286.022 195.682 285.667 195.316 285.229 195.316Z" fill="white"/>
<path d="M307.275 195.316H298.29C297.851 195.316 297.496 195.682 297.496 196.134C297.496 196.586 297.851 196.953 298.29 196.953H307.275C307.713 196.953 308.068 196.586 308.068 196.134C308.068 195.682 307.713 195.316 307.275 195.316Z" fill="white"/>
<path d="M277.6 199.146H276.154C275.716 199.146 275.361 199.513 275.361 199.965C275.361 200.417 275.716 200.783 276.154 200.783H277.6C278.038 200.783 278.393 200.417 278.393 199.965C278.393 199.513 278.038 199.146 277.6 199.146Z" fill="white"/>
<path d="M294.135 199.146H292.689C292.251 199.146 291.895 199.513 291.895 199.965C291.895 200.417 292.251 200.783 292.689 200.783H294.135C294.573 200.783 294.928 200.417 294.928 199.965C294.928 199.513 294.573 199.146 294.135 199.146Z" fill="white"/>
<path d="M298.819 199.146H297.373C296.935 199.146 296.58 199.513 296.58 199.965C296.58 200.417 296.935 200.783 297.373 200.783H298.819C299.257 200.783 299.612 200.417 299.612 199.965C299.612 199.513 299.257 199.146 298.819 199.146Z" fill="white"/>
<path d="M289.637 199.01H280.652C280.214 199.01 279.859 199.376 279.859 199.828C279.859 200.28 280.214 200.647 280.652 200.647H289.637C290.076 200.647 290.431 200.28 290.431 199.828C290.431 199.376 290.076 199.01 289.637 199.01Z" fill="white"/>
<path d="M280.907 213.836H279.462C279.024 213.836 278.668 214.202 278.668 214.654C278.668 215.106 279.024 215.473 279.462 215.473H280.907C281.346 215.473 281.701 215.106 281.701 214.654C281.701 214.202 281.346 213.836 280.907 213.836Z" fill="white"/>
<path d="M285.592 213.836H284.147C283.708 213.836 283.353 214.202 283.353 214.654C283.353 215.106 283.708 215.473 284.147 215.473H285.592C286.031 215.473 286.386 215.106 286.386 214.654C286.386 214.202 286.031 213.836 285.592 213.836Z" fill="white"/>
<path d="M298.456 213.972H289.471C289.033 213.972 288.677 214.339 288.677 214.791C288.677 215.243 289.033 215.609 289.471 215.609H298.456C298.894 215.609 299.25 215.243 299.25 214.791C299.25 214.339 298.894 213.972 298.456 213.972Z" fill="white"/>
<path d="M264.374 213.836H262.928C262.49 213.836 262.134 214.202 262.134 214.654C262.134 215.106 262.49 215.473 262.928 215.473H264.374C264.812 215.473 265.167 215.106 265.167 214.654C265.167 214.202 264.812 213.836 264.374 213.836Z" fill="white"/>
<path d="M276.411 213.972H267.426C266.987 213.972 266.632 214.339 266.632 214.791C266.632 215.243 266.987 215.609 267.426 215.609H276.411C276.849 215.609 277.204 215.243 277.204 214.791C277.204 214.339 276.849 213.972 276.411 213.972Z" fill="white"/>
<path d="M268.782 210.142H267.337C266.899 210.142 266.543 210.508 266.543 210.96C266.543 211.412 266.899 211.779 267.337 211.779H268.782C269.221 211.779 269.576 211.412 269.576 210.96C269.576 210.508 269.221 210.142 268.782 210.142Z" fill="white"/>
<path d="M285.316 210.142H283.87C283.432 210.142 283.077 210.508 283.077 210.96C283.077 211.412 283.432 211.779 283.87 211.779H285.316C285.754 211.779 286.11 211.412 286.11 210.96C286.11 210.508 285.754 210.142 285.316 210.142Z" fill="white"/>
<path d="M290 210.142H288.555C288.116 210.142 287.761 210.508 287.761 210.96C287.761 211.412 288.116 211.779 288.555 211.779H290C290.439 211.779 290.794 211.412 290.794 210.96C290.794 210.508 290.439 210.142 290 210.142Z" fill="white"/>
<path d="M280.818 210.278H271.833C271.395 210.278 271.04 210.645 271.04 211.097C271.04 211.549 271.395 211.915 271.833 211.915H280.818C281.257 211.915 281.612 211.549 281.612 211.097C281.612 210.645 281.257 210.278 280.818 210.278Z" fill="white"/>
<path d="M273.192 206.448H271.747C271.308 206.448 270.953 206.814 270.953 207.266C270.953 207.718 271.308 208.084 271.747 208.084H273.192C273.631 208.084 273.986 207.718 273.986 207.266C273.986 206.814 273.631 206.448 273.192 206.448Z" fill="white"/>
<path d="M289.727 206.448H288.281C287.843 206.448 287.487 206.814 287.487 207.266C287.487 207.718 287.843 208.084 288.281 208.084H289.727C290.165 208.084 290.52 207.718 290.52 207.266C290.52 206.814 290.165 206.448 289.727 206.448Z" fill="white"/>
<path d="M294.411 206.448H292.965C292.527 206.448 292.172 206.814 292.172 207.266C292.172 207.718 292.527 208.084 292.965 208.084H294.411C294.849 208.084 295.205 207.718 295.205 207.266C295.205 206.814 294.849 206.448 294.411 206.448Z" fill="white"/>
<path d="M285.229 206.584H276.244C275.805 206.584 275.45 206.95 275.45 207.402C275.45 207.854 275.805 208.221 276.244 208.221H285.229C285.667 208.221 286.022 207.854 286.022 207.402C286.022 206.95 285.667 206.584 285.229 206.584Z" fill="white"/>
<path d="M277.6 202.754H276.154C275.716 202.754 275.361 203.12 275.361 203.572C275.361 204.024 275.716 204.39 276.154 204.39H277.6C278.038 204.39 278.393 204.024 278.393 203.572C278.393 203.12 278.038 202.754 277.6 202.754Z" fill="white"/>
<path d="M294.135 202.754H292.689C292.251 202.754 291.895 203.12 291.895 203.572C291.895 204.024 292.251 204.39 292.689 204.39H294.135C294.573 204.39 294.928 204.024 294.928 203.572C294.928 203.12 294.573 202.754 294.135 202.754Z" fill="white"/>
<path d="M298.819 202.754H297.373C296.935 202.754 296.58 203.12 296.58 203.572C296.58 204.024 296.935 204.39 297.373 204.39H298.819C299.257 204.39 299.612 204.024 299.612 203.572C299.612 203.12 299.257 202.754 298.819 202.754Z" fill="white"/>
<path d="M289.637 202.89H280.652C280.214 202.89 279.859 203.256 279.859 203.708C279.859 204.16 280.214 204.527 280.652 204.527H289.637C290.076 204.527 290.431 204.16 290.431 203.708C290.431 203.256 290.076 202.89 289.637 202.89Z" fill="white"/>
<path d="M256.687 257.13L249.901 246.067L271.203 228.556L279.995 218.511C281.138 217.206 282.592 216.233 284.213 215.69C285.835 215.146 287.566 215.05 289.234 215.413C290.902 215.775 292.449 216.582 293.72 217.754C294.991 218.926 295.941 220.422 296.476 222.091C297.268 224.565 297.098 227.259 296.001 229.606C294.903 231.952 292.964 233.767 290.594 234.668L276.69 239.95L256.687 257.13Z" fill="#FFB6B6"/>
<path d="M97.4509 176.921V230.687H133.978V176.921C133.978 176.534 133.859 176.157 133.636 175.846C133.414 175.534 133.101 175.305 132.742 175.191C132.574 175.133 132.397 175.105 132.219 175.107H99.215C98.9836 175.106 98.7544 175.153 98.5406 175.244C98.3267 175.335 98.1322 175.468 97.9684 175.637C97.8046 175.805 97.6745 176.005 97.5857 176.226C97.497 176.446 97.4511 176.682 97.4509 176.921ZM111.706 195.395C111.715 194.335 112.13 193.322 112.861 192.576C113.591 191.83 114.577 191.411 115.605 191.411C116.633 191.411 117.619 191.83 118.35 192.576C119.08 193.322 119.495 194.335 119.504 195.395V201.633C119.499 202.696 119.086 203.714 118.355 204.463C117.625 205.213 116.636 205.634 115.605 205.634C114.574 205.634 113.586 205.213 112.855 204.463C112.124 203.714 111.711 202.696 111.706 201.633V195.395Z" fill="#2F2E41"/>
<path d="M97.3386 228.967V234.152C97.3394 234.42 97.4429 234.678 97.6266 234.868C97.8103 235.059 98.0594 235.167 98.3198 235.169H133.108C133.369 235.168 133.618 235.06 133.802 234.869C133.986 234.679 134.089 234.421 134.089 234.152V228.967H97.3386Z" fill="#3F3D56"/>
<path d="M39.9886 95.9153V194.084C39.9896 195.335 40.472 196.535 41.3298 197.419C42.1877 198.304 43.3509 198.801 44.5641 198.802H185.639C186.852 198.801 188.015 198.304 188.873 197.419C189.731 196.535 190.213 195.335 190.214 194.084V95.9153C190.211 94.6653 189.728 93.4675 188.871 92.5842C188.013 91.7008 186.851 91.204 185.639 91.2024H44.5641C43.3519 91.204 42.1898 91.7009 41.3322 92.5842C40.4747 93.4675 39.9915 94.6654 39.9886 95.9153Z" fill="#3F3D56"/>
<path d="M43.2983 97.1367V192.873C43.2995 193.542 43.5574 194.182 44.0158 194.655C44.4741 195.128 45.0954 195.394 45.7436 195.395H184.464C185.112 195.394 185.733 195.128 186.191 194.655C186.65 194.182 186.908 193.542 186.909 192.873V97.1367C186.909 96.4675 186.651 95.8256 186.193 95.3519C185.734 94.8782 185.113 94.6113 184.464 94.6099H45.7436C45.0946 94.6113 44.4727 94.8782 44.0143 95.3519C43.5559 95.8256 43.2984 96.4675 43.2983 97.1367Z" fill="white"/>
<path d="M69.0424 234.818C69.1836 235 69.363 235.147 69.5673 235.248C69.7716 235.349 69.9954 235.401 70.2218 235.4H152.752C152.978 235.399 153.2 235.347 153.404 235.247C153.608 235.147 153.787 235.001 153.929 234.82C154.072 234.639 154.173 234.428 154.226 234.202C154.279 233.976 154.283 233.74 154.236 233.512L152.955 227.237C152.902 226.981 152.788 226.743 152.623 226.544C152.457 226.346 152.247 226.193 152.01 226.1C151.838 226.03 151.655 225.995 151.471 225.995H71.4978C71.3134 225.995 71.1306 226.03 70.959 226.1C70.7218 226.193 70.5111 226.346 70.3459 226.544C70.1808 226.743 70.0665 226.981 70.0134 227.237L68.7323 233.512C68.6867 233.74 68.6909 233.975 68.7445 234.201C68.7982 234.427 68.8999 234.638 69.0424 234.818Z" fill="#2F2E41"/>
<path d="M179.962 107.798H50.1618C50.0269 107.795 49.8985 107.738 49.8042 107.638C49.7098 107.539 49.657 107.405 49.657 107.266C49.657 107.127 49.7098 106.993 49.8042 106.893C49.8985 106.794 50.0269 106.737 50.1618 106.733H179.962C180.097 106.737 180.225 106.794 180.32 106.893C180.414 106.993 180.467 107.127 180.467 107.266C180.467 107.405 180.414 107.539 180.32 107.638C180.225 107.738 180.097 107.795 179.962 107.798Z" fill="#3F3D56"/>
<path d="M58.9977 104.016C60.6684 104.016 62.0228 102.588 62.0228 100.827C62.0228 99.0655 60.6684 97.6378 58.9977 97.6378C57.327 97.6378 55.9727 99.0655 55.9727 100.827C55.9727 102.588 57.327 104.016 58.9977 104.016Z" fill="#3F3D56"/>
<path d="M69.4479 104.016C71.1186 104.016 72.4729 102.588 72.4729 100.827C72.4729 99.0655 71.1186 97.6378 69.4479 97.6378C67.7772 97.6378 66.4229 99.0655 66.4229 100.827C66.4229 102.588 67.7772 104.016 69.4479 104.016Z" fill="#3F3D56"/>
<path d="M79.8979 104.016C81.5685 104.016 82.9229 102.588 82.9229 100.827C82.9229 99.0655 81.5685 97.6378 79.8979 97.6378C78.2272 97.6378 76.8728 99.0655 76.8728 100.827C76.8728 102.588 78.2272 104.016 79.8979 104.016Z" fill="#3F3D56"/>
<path d="M173.669 98.4264H166.247C166.1 98.4299 165.961 98.4925 165.858 98.6007C165.756 98.709 165.698 98.8543 165.698 99.0057C165.698 99.157 165.756 99.3024 165.858 99.4106C165.961 99.5189 166.1 99.5814 166.247 99.585H173.669C173.817 99.5828 173.958 99.5208 174.061 99.4124C174.165 99.304 174.223 99.1579 174.223 99.0057C174.223 98.8534 174.165 98.7073 174.061 98.5989C173.958 98.4905 173.817 98.4285 173.669 98.4264Z" fill="#3F3D56"/>
<path d="M173.669 100.602H166.247C166.1 100.605 165.96 100.668 165.858 100.776C165.755 100.884 165.698 101.03 165.698 101.181C165.698 101.333 165.755 101.478 165.858 101.586C165.96 101.695 166.1 101.757 166.247 101.761H173.669C173.817 101.759 173.958 101.697 174.062 101.588C174.166 101.48 174.224 101.334 174.224 101.181C174.224 101.029 174.166 100.883 174.062 100.774C173.958 100.666 173.817 100.604 173.669 100.602Z" fill="#3F3D56"/>
<path d="M173.669 102.778H166.247C166.1 102.781 165.961 102.844 165.858 102.952C165.756 103.06 165.698 103.205 165.698 103.357C165.698 103.508 165.756 103.653 165.858 103.762C165.961 103.87 166.1 103.933 166.247 103.936H173.669C173.817 103.934 173.958 103.872 174.061 103.764C174.165 103.655 174.223 103.509 174.223 103.357C174.223 103.205 174.165 103.058 174.061 102.95C173.958 102.842 173.817 102.78 173.669 102.778Z" fill="#3F3D56"/>
<path d="M352.606 231.243C352.83 231.915 353.254 232.497 353.819 232.905C354.384 233.313 355.06 233.526 355.749 233.513L369.217 233.156C369.911 233.142 370.583 232.896 371.131 232.456C371.679 232.016 372.074 231.405 372.257 230.714L374.163 209.699C374.839 210.015 375.575 210.171 376.317 210.156C376.962 210.139 377.598 209.991 378.187 209.721C378.777 209.452 379.309 209.065 379.753 208.583C380.198 208.101 380.546 207.533 380.778 206.912C381.009 206.292 381.12 205.63 381.104 204.965C381.088 204.3 380.945 203.645 380.683 203.037C380.422 202.429 380.046 201.88 379.579 201.422C379.112 200.964 378.561 200.605 377.959 200.366C377.357 200.127 376.716 200.012 376.071 200.029C375.774 200.028 375.478 200.06 375.188 200.124C374.873 199.772 374.489 199.492 374.063 199.302C373.636 199.112 373.175 199.016 372.71 199.021L351.994 199.573C351.822 199.579 351.651 199.601 351.483 199.638C351.029 199.726 350.598 199.912 350.219 200.186C349.841 200.459 349.524 200.813 349.289 201.224C349.054 201.634 348.907 202.092 348.858 202.566C348.81 203.04 348.86 203.519 349.006 203.971L352.606 231.243ZM374.554 208.272L375.91 203.264C376.064 202.686 376.068 202.075 375.92 201.495C375.986 201.495 376.044 201.463 376.11 201.463C377.04 201.443 377.939 201.804 378.611 202.467C379.283 203.13 379.673 204.041 379.695 205C379.717 205.959 379.369 206.887 378.728 207.582C378.086 208.277 377.204 208.681 376.275 208.706C375.673 208.725 375.078 208.575 374.554 208.272Z" fill="#2F2E41"/>
<path d="M351.484 199.638C351.925 202.241 356.888 204.07 362.854 203.752C368.341 203.491 372.827 201.505 373.649 199.15C373.345 199.057 373.029 199.014 372.712 199.021L351.995 199.573C351.823 199.579 351.652 199.601 351.484 199.638Z" fill="#3F3D56"/>
<path d="M363.947 219.695C363.974 219.687 364 219.676 364.023 219.66L366.948 217.686C366.984 217.662 367.013 217.629 367.033 217.591C367.053 217.553 367.063 217.51 367.063 217.466C367.063 217.423 367.053 217.38 367.033 217.342C367.013 217.304 366.984 217.271 366.948 217.247L363.908 215.194C363.881 215.175 363.849 215.162 363.816 215.155C363.784 215.149 363.75 215.149 363.717 215.156C363.684 215.163 363.653 215.176 363.625 215.196C363.598 215.215 363.574 215.24 363.556 215.269C363.537 215.298 363.525 215.33 363.519 215.364C363.512 215.398 363.513 215.433 363.52 215.466C363.526 215.5 363.54 215.532 363.559 215.561C363.578 215.589 363.602 215.613 363.63 215.632L366.345 217.466L363.745 219.221C363.695 219.255 363.658 219.306 363.641 219.366C363.624 219.425 363.627 219.489 363.652 219.546C363.676 219.603 363.719 219.649 363.773 219.676C363.827 219.703 363.888 219.71 363.947 219.695Z" fill="#6C63FF"/>
<path d="M359.329 219.914C359.378 219.901 359.422 219.874 359.456 219.835C359.49 219.796 359.511 219.748 359.518 219.696C359.525 219.644 359.517 219.591 359.494 219.545C359.472 219.498 359.437 219.459 359.393 219.433L356.697 217.839L359.303 215.843C359.329 215.822 359.352 215.797 359.369 215.767C359.386 215.738 359.398 215.705 359.402 215.671C359.407 215.637 359.406 215.602 359.397 215.569C359.389 215.536 359.375 215.504 359.355 215.477C359.335 215.449 359.31 215.426 359.281 215.408C359.253 215.39 359.221 215.379 359.188 215.374C359.155 215.369 359.122 215.37 359.089 215.379C359.057 215.387 359.026 215.402 359 215.423L356.082 217.657C356.048 217.683 356.021 217.717 356.003 217.757C355.986 217.796 355.977 217.84 355.98 217.883C355.982 217.926 355.995 217.968 356.018 218.005C356.04 218.042 356.071 218.073 356.107 218.095L359.14 219.888C359.197 219.921 359.265 219.931 359.329 219.914Z" fill="#6C63FF"/>
<path d="M363.656 221.425C363.68 221.418 363.704 221.408 363.726 221.394C363.754 221.376 363.779 221.353 363.799 221.325C363.818 221.297 363.833 221.266 363.841 221.232C363.848 221.199 363.85 221.164 363.845 221.13C363.84 221.096 363.828 221.063 363.811 221.034L359.665 214.005C359.629 213.946 359.573 213.903 359.507 213.887C359.442 213.87 359.373 213.882 359.315 213.918C359.258 213.954 359.217 214.012 359.201 214.08C359.185 214.147 359.195 214.218 359.23 214.278L363.376 221.307C363.405 221.355 363.447 221.392 363.497 221.413C363.548 221.434 363.603 221.438 363.656 221.425Z" fill="#6C63FF"/>
<path d="M130.571 136.736H108.105C107.189 136.736 106.446 137.502 106.446 138.447V140.71C106.446 141.655 107.189 142.422 108.105 142.422H130.571C131.487 142.422 132.23 141.655 132.23 140.71V138.447C132.23 137.502 131.487 136.736 130.571 136.736Z" fill="#6C63FF"/>
<path d="M143.666 148.107H95.01C94.0935 148.107 93.3506 148.873 93.3506 149.819V152.082C93.3506 153.027 94.0935 153.793 95.01 153.793H143.666C144.582 153.793 145.325 153.027 145.325 152.082V149.819C145.325 148.873 144.582 148.107 143.666 148.107Z" fill="#E6E6E6"/>
<path d="M143.666 159.479H95.01C94.0935 159.479 93.3506 160.245 93.3506 161.19V163.453C93.3506 164.398 94.0935 165.165 95.01 165.165H143.666C144.582 165.165 145.325 164.398 145.325 163.453V161.19C145.325 160.245 144.582 159.479 143.666 159.479Z" fill="#E6E6E6"/>
<path d="M147.791 197.557L147.901 197.916L147.907 197.928L151.224 208.328L155.04 220.313L162.219 242.835L162.289 246.333V246.345L162.822 274.489L161.344 278.304L163.008 284.56C163.008 284.56 162.243 275.104 158.137 280.534C155.811 283.62 153.091 286.777 150.858 289.738C154.112 291.095 157.418 292.323 160.775 293.422C161.5 293.661 162.231 293.888 162.962 294.115C163.118 294.163 163.275 294.211 163.431 294.259C174.562 297.653 186.069 299.561 197.671 299.934C198.274 299.952 198.866 299.964 199.44 299.976C199.643 299.982 199.84 299.988 200.037 299.988C200.687 299.994 201.33 300 201.98 300C203.291 300 204.595 299.98 205.894 299.94C215.509 299.661 225.068 298.328 234.41 295.963C234.346 291.986 234.172 287.34 233.923 282.376C233.807 279.942 231.203 277.305 231.046 274.757C230.936 272.843 233.273 271.043 233.151 269.1C232.363 257.133 231.377 261.727 230.646 253.252C230.571 252.421 230.501 251.626 230.437 250.866C229.968 245.424 229.643 242.021 229.643 242.021L232.763 221.742L237.663 189.903L237.286 189.263L236.863 189.047L211.015 175.855L209.612 172.147C209.203 171.079 208.493 170.161 207.575 169.512C206.656 168.863 205.57 168.512 204.456 168.505L187.429 168.433C186.546 168.429 185.674 168.642 184.886 169.055C184.098 169.468 183.417 170.069 182.9 170.807L178.289 177.392L147.791 197.557Z" fill="#3F3D56"/>
<path d="M166.145 237.823L162.289 246.333L159.656 252.146L155.127 276.6L152.859 279.082L150.916 270.296L130.582 274.951C129.916 271.13 130.404 275.081 129.992 270.888C130.108 270.769 130.23 270.649 130.352 270.53C130.677 270.219 130.949 269.926 130.943 269.645C130.711 255.184 131.407 230.575 137.218 215.666C138.128 213.232 139.328 210.923 140.791 208.794C140.907 208.633 141.017 208.472 141.127 208.31C143.806 204.441 145.5 200.631 147.901 197.922V197.916C147.916 197.904 147.929 197.89 147.941 197.874C147.95 197.87 147.958 197.864 147.964 197.856L164.458 188.838L165.165 209.339L165.67 224.074L166.145 237.823Z" fill="#3F3D56"/>
<path d="M225.617 240.24L230.434 250.869L232.116 254.571L236.644 279.022L238.904 281.498L240.851 272.714L241.766 272.521L258.267 268.996L263.077 284.748C264.161 282.885 264.588 280.694 264.286 278.544C263.984 276.394 262.971 274.418 261.419 272.95C261.09 272.643 260.817 272.345 260.824 272.063C261.098 255.055 260.089 223.998 250.979 211.216C248.085 207.16 246.349 203.12 243.823 200.297C243.815 200.289 243.815 200.281 243.807 200.281L237.66 189.902L237.285 189.265L236.863 189.047L225.617 240.24Z" fill="#3F3D56"/>
<path d="M196.435 163.436C208.946 163.436 219.088 152.978 219.088 140.077C219.088 127.176 208.946 116.718 196.435 116.718C183.925 116.718 173.783 127.176 173.783 140.077C173.783 152.978 183.925 163.436 196.435 163.436Z" fill="#FFB6B6"/>
<path d="M227.052 123.761C226.876 123.567 226.665 123.412 226.43 123.305C226.195 123.198 225.941 123.141 225.684 123.137L226.025 122.162C226.136 121.855 226.166 121.523 226.112 121.2C226.058 120.877 225.921 120.574 225.716 120.323C225.512 120.073 225.246 119.883 224.946 119.773C224.647 119.663 224.324 119.637 224.012 119.698L222.771 119.944L222.888 119.09C222.933 118.771 222.897 118.447 222.783 118.147C222.669 117.848 222.482 117.584 222.239 117.382C221.997 117.18 221.707 117.047 221.399 116.995C221.092 116.943 220.776 116.975 220.484 117.087C220.218 117.195 219.932 117.24 219.647 117.219C219.362 117.199 219.085 117.112 218.837 116.967C218.587 116.825 218.371 116.63 218.202 116.394C218.033 116.157 217.917 115.886 217.861 115.598L217.428 113.449L217.383 113.334C215.278 109.716 211.231 107.085 206.28 106.12C201.872 105.255 197.353 105.695 192.996 106.11C191.267 106.277 189.315 106.466 187.688 107.494C186.306 108.374 185.136 110.136 185.375 111.913C181.079 110.555 176.474 113.265 174.191 116.683C171.486 120.752 171.044 125.847 170.973 129.831C170.78 139.257 172.666 146.969 176.565 152.756C176.85 153.176 176.921 154.051 177.485 154.345L177.368 154.151C177.999 154.476 178.639 155 178.4 155.561C177.714 157.176 182.274 160.746 185.487 161.925C191.349 164.08 199.142 163.896 204.622 163.121L204.816 161.784C206.793 161.506 208.186 160.976 208.578 160.148C209.269 159.54 209.859 158.995 210.372 158.492L210.377 158.486C210.387 158.476 210.408 158.46 210.418 158.45C212.894 156.001 213.468 154.607 213.727 152.484C213.977 150.403 213.534 148.29 213.082 146.387C222.609 147.907 209.33 135.923 218.206 133.606C218.308 133.574 218.412 133.547 218.516 133.527C218.776 133.464 219.035 133.401 219.284 133.328C220.485 132.992 221.635 132.486 222.7 131.824C225.181 130.267 226 128.201 227.281 125.873C227.466 125.542 227.543 125.158 227.502 124.778C227.461 124.398 227.303 124.042 227.052 123.761Z" fill="#2F2E41"/>
<path d="M276.553 241.903C276.548 242.821 276.538 244.105 276.497 245.694C276.492 245.914 276.487 246.139 276.482 246.37C276.416 249.29 276.349 251.738 276.243 254.459C276.238 254.648 276.233 254.831 276.222 255.02C276.08 258.815 275.856 263.235 275.47 270.233C274.753 283.161 273.503 272.01 272.247 276.545C272.186 276.77 272.12 277.038 272.059 277.352C271.869 278.494 271.548 279.608 271.103 280.671C270.437 281.08 269.751 281.473 269.075 281.866C267.148 282.972 265.191 284.036 263.218 285.048C262.11 285.614 260.996 286.17 259.878 286.705C259.7 286.789 259.527 286.873 259.354 286.951C253.627 289.683 247.724 292.006 241.688 293.903C240.509 294.27 239.334 294.626 238.145 294.956C236.904 295.313 235.664 295.648 234.408 295.963C225.067 298.328 215.508 299.661 205.893 299.942C204.597 299.984 203.29 299.999 201.979 299.999C201.328 299.999 200.688 299.994 200.037 299.989C199.839 299.989 199.64 299.984 199.442 299.979C198.868 299.963 198.273 299.952 197.673 299.937C186.071 299.563 174.564 297.655 163.434 294.259L162.961 294.118C162.229 293.887 161.502 293.661 160.775 293.42C157.42 292.325 154.113 291.098 150.856 289.74C148.37 288.707 145.913 287.599 143.485 286.416C143.463 286.41 143.442 286.4 143.424 286.385C142.916 286.144 142.402 285.892 141.894 285.635C141.828 285.599 141.756 285.562 141.685 285.525C139.789 284.571 137.913 283.572 136.057 282.527C134.497 278.831 132.301 278.123 130.938 274.873C130.542 273.907 130.255 272.897 130.084 271.864C130.084 271.853 130.079 271.843 130.079 271.827C130.221 273.777 129.474 268.367 130.074 271.806C130.069 271.743 130.064 271.675 130.059 271.596C130.043 271.407 130.023 271.177 129.993 270.888C128.249 253.332 128.361 233.253 127.603 216.708C127.552 215.639 127.5 214.615 127.446 213.636C127.43 213.311 127.41 212.991 127.39 212.677C127.425 212.583 127.466 212.483 127.512 212.389C127.521 212.361 127.533 212.335 127.547 212.31C127.562 212.277 127.579 212.246 127.598 212.216C127.608 212.2 127.624 212.179 127.634 212.163C127.641 212.145 127.65 212.128 127.659 212.111C127.705 212.037 127.756 211.959 127.812 211.885C127.837 211.854 127.857 211.828 127.883 211.801C127.9 211.775 127.921 211.75 127.944 211.728C127.959 211.703 127.978 211.68 128 211.66C128.02 211.639 128.04 211.613 128.066 211.587C128.077 211.57 128.09 211.556 128.106 211.545C128.147 211.497 128.191 211.453 128.239 211.414C128.42 211.241 128.614 211.084 128.818 210.942C128.889 210.895 128.966 210.847 129.037 210.795C129.549 210.479 130.089 210.212 130.648 209.998C130.842 209.925 131.035 209.857 131.243 209.783C131.319 209.762 131.391 209.736 131.467 209.71C131.579 209.673 131.691 209.636 131.807 209.61C132.387 209.432 133.012 209.28 133.688 209.138C133.77 209.123 133.856 209.107 133.943 209.086C134.065 209.06 134.192 209.039 134.319 209.018C134.492 208.986 134.67 208.955 134.848 208.923C136.357 208.677 138.071 208.494 139.962 208.373C140.14 208.362 140.318 208.352 140.496 208.342C140.704 208.331 140.912 208.321 141.126 208.31C141.304 208.3 141.487 208.294 141.67 208.289C141.848 208.279 142.031 208.273 142.219 208.268C142.732 208.252 143.261 208.237 143.8 208.226C145.335 208.195 146.952 208.205 148.65 208.242C149.438 208.263 150.241 208.284 151.065 208.321C151.121 208.321 151.172 208.326 151.222 208.326C151.939 208.352 152.661 208.383 153.403 208.425C153.922 208.452 154.446 208.478 154.969 208.509C155.462 208.541 155.96 208.572 156.464 208.609C156.855 208.63 157.247 208.661 157.643 208.688C157.979 208.714 158.314 208.74 158.65 208.761L159.107 208.792C159.356 208.813 159.606 208.829 159.86 208.855C160.419 208.902 160.978 208.95 161.548 208.997C162.112 209.049 162.686 209.102 163.261 209.154C163.835 209.207 164.415 209.264 164.994 209.322C165.055 209.327 165.111 209.332 165.167 209.338C165.696 209.395 166.225 209.448 166.758 209.505C166.88 209.516 167.008 209.526 167.13 209.542C167.638 209.595 168.157 209.656 168.671 209.713C168.829 209.73 168.985 209.747 169.143 209.765C169.546 209.81 169.942 209.849 170.348 209.898C170.881 209.961 171.425 210.019 171.954 210.092C172.366 210.14 172.778 210.187 173.189 210.239C173.835 210.318 174.491 210.402 175.147 210.491C175.396 210.522 175.645 210.554 175.894 210.59C177.765 210.832 179.656 211.099 181.578 211.377C184.491 211.801 187.449 212.263 190.428 212.761C193.413 213.259 196.414 213.785 199.432 214.339C200.194 214.48 200.957 214.622 201.725 214.769C202.07 214.837 202.416 214.905 202.762 214.973C203.351 215.083 203.941 215.199 204.531 215.314C205.121 215.429 205.71 215.545 206.3 215.665C207.002 215.807 207.708 215.948 208.41 216.09C213.031 217.033 217.627 218.04 222.111 219.094C222.848 219.267 223.585 219.445 224.317 219.618C225.781 219.969 227.232 220.326 228.669 220.687C229.065 220.782 229.457 220.881 229.848 220.981C230.824 221.233 231.8 221.484 232.761 221.741L232.929 221.788C233.635 221.966 234.327 222.15 235.018 222.339C236.65 222.779 238.255 223.225 239.833 223.675C240.88 223.974 241.915 224.277 242.939 224.582C244.469 225.038 245.969 225.5 247.428 225.966C247.789 226.082 248.15 226.197 248.506 226.307C249.573 226.648 250.625 226.994 251.647 227.34C252.461 227.613 253.254 227.89 254.037 228.168C254.82 228.446 255.587 228.724 256.34 229.002C256.823 229.18 257.3 229.369 257.778 229.547C258.465 229.809 259.141 230.071 259.802 230.333C260.005 230.412 260.203 230.496 260.402 230.574C260.529 230.632 260.651 230.679 260.773 230.732C261.012 230.831 261.256 230.926 261.49 231.025C261.728 231.12 261.962 231.219 262.196 231.324C262.425 231.418 262.659 231.518 262.882 231.618C263.111 231.712 263.335 231.812 263.559 231.917C263.747 231.995 263.93 232.079 264.108 232.163C264.469 232.325 264.83 232.488 265.18 232.656C265.353 232.74 265.526 232.818 265.699 232.902L266.095 233.091C266.151 233.122 266.207 233.148 266.263 233.175C266.39 233.238 266.522 233.306 266.65 233.369C266.944 233.51 267.234 233.662 267.519 233.804C267.9 234.003 268.271 234.202 268.627 234.396C268.988 234.595 269.339 234.795 269.674 234.989C269.73 235.02 269.781 235.051 269.837 235.083C269.913 235.125 269.99 235.172 270.066 235.214C270.325 235.366 270.574 235.523 270.823 235.675C271.311 235.985 271.774 236.289 272.206 236.593C272.303 236.661 272.394 236.729 272.491 236.792C272.811 237.028 273.116 237.258 273.401 237.494C273.401 237.5 273.401 237.5 273.406 237.5C273.503 237.573 273.594 237.652 273.686 237.725C273.762 237.798 273.843 237.861 273.919 237.935C274.184 238.171 274.428 238.396 274.651 238.627C274.726 238.698 274.798 238.773 274.865 238.852C274.895 238.877 274.922 238.906 274.946 238.936C275.048 239.041 275.139 239.146 275.226 239.251C275.239 239.265 275.251 239.281 275.261 239.298C275.383 239.445 275.495 239.591 275.602 239.738C275.653 239.812 275.709 239.885 275.755 239.958C275.816 240.047 275.877 240.142 275.927 240.231C275.973 240.304 276.014 240.383 276.055 240.456C276.162 240.645 276.254 240.844 276.329 241.049C276.386 241.188 276.432 241.332 276.466 241.479C276.505 241.618 276.534 241.76 276.553 241.903Z" fill="#2F2E41"/>
<path opacity="0.2" d="M276.552 241.903C276.547 242.821 276.537 244.105 276.496 245.694C276.491 245.914 276.481 246.139 276.476 246.37C276.425 248.598 276.349 251.35 276.242 254.459C276.237 254.648 276.232 254.831 276.221 255.02C276.079 258.815 275.855 263.235 275.469 270.233C274.752 283.161 273.502 272.01 272.246 276.545C268.759 274.333 264.936 272.016 260.848 269.636C260.111 269.206 259.367 268.774 258.616 268.341C250.442 263.638 241.311 258.71 231.779 253.83C231.403 253.636 231.022 253.442 230.646 253.253C208.811 242.123 184.978 231.298 165.67 224.074C161.944 222.679 158.385 221.421 155.04 220.315C147.994 217.993 141.904 216.368 137.216 215.665C132.336 214.931 128.966 215.193 127.603 216.708C127.552 215.639 127.5 214.615 127.446 213.636C127.425 213.311 127.405 212.991 127.385 212.677C127.416 212.591 127.457 212.508 127.496 212.425C127.502 212.413 127.506 212.401 127.512 212.389C127.521 212.361 127.533 212.335 127.547 212.31C127.562 212.277 127.579 212.246 127.598 212.216C127.615 212.178 127.635 212.143 127.659 212.111C127.705 212.037 127.756 211.959 127.812 211.885C127.853 211.83 127.897 211.778 127.944 211.728C127.959 211.703 127.978 211.68 128 211.66C128.02 211.639 128.04 211.613 128.066 211.587C128.077 211.57 128.09 211.556 128.106 211.545C128.147 211.497 128.191 211.453 128.239 211.414C128.42 211.241 128.614 211.084 128.818 210.942C128.889 210.895 128.966 210.847 129.037 210.795C129.549 210.479 130.089 210.212 130.648 209.998C130.841 209.925 131.035 209.857 131.243 209.783C131.319 209.762 131.391 209.736 131.467 209.71C131.579 209.673 131.69 209.636 131.807 209.61C132.387 209.432 133.012 209.28 133.688 209.138C133.892 209.096 134.105 209.054 134.319 209.018C134.492 208.986 134.67 208.955 134.847 208.923C136.357 208.677 138.071 208.493 139.962 208.373C140.14 208.362 140.318 208.352 140.496 208.341C140.704 208.331 140.912 208.32 141.126 208.31C141.304 208.3 141.487 208.294 141.67 208.289C141.848 208.279 142.031 208.273 142.219 208.268C142.732 208.252 143.261 208.237 143.8 208.226C145.335 208.2 146.952 208.21 148.65 208.247C149.438 208.263 150.241 208.289 151.065 208.326C151.115 208.326 151.171 208.331 151.222 208.331C151.939 208.352 152.666 208.389 153.403 208.425C153.922 208.452 154.445 208.478 154.969 208.509C155.462 208.541 155.96 208.572 156.464 208.609C156.855 208.63 157.246 208.661 157.643 208.687C157.978 208.714 158.314 208.74 158.65 208.761C159.051 208.792 159.453 208.824 159.86 208.855C160.419 208.902 160.978 208.95 161.547 208.997C162.112 209.049 162.686 209.102 163.261 209.154C163.835 209.206 164.415 209.264 164.994 209.322C165.055 209.327 165.111 209.332 165.167 209.338C165.696 209.395 166.224 209.448 166.758 209.505C169.717 209.815 172.762 210.176 175.894 210.59C177.764 210.837 179.659 211.101 181.577 211.382C184.49 211.807 187.449 212.268 190.428 212.761C193.412 213.259 196.413 213.785 199.431 214.339C200.194 214.48 200.957 214.622 201.724 214.769C202.66 214.947 203.595 215.129 204.53 215.314C205.12 215.429 205.71 215.545 206.3 215.665C207.001 215.807 207.708 215.948 208.409 216.09C213.03 217.033 217.626 218.04 222.11 219.094C222.847 219.267 223.584 219.445 224.316 219.618C225.78 219.969 227.231 220.326 228.668 220.687C229.065 220.787 229.456 220.887 229.847 220.986C230.829 221.238 231.8 221.489 232.76 221.741V221.746C232.816 221.757 232.872 221.772 232.928 221.788C233.63 221.972 234.326 222.155 235.018 222.344C236.65 222.784 238.254 223.228 239.832 223.675C240.879 223.979 241.916 224.278 242.938 224.582C244.468 225.044 245.968 225.505 247.427 225.966C247.788 226.082 248.149 226.197 248.505 226.307C249.572 226.653 250.62 226.997 251.647 227.34C252.46 227.612 253.253 227.89 254.036 228.168C254.819 228.446 255.587 228.724 256.339 229.002C256.827 229.18 257.305 229.363 257.778 229.542C258.469 229.804 259.14 230.066 259.801 230.333C260.004 230.412 260.203 230.496 260.401 230.574C260.772 230.721 261.133 230.873 261.489 231.025C261.728 231.12 261.962 231.219 262.195 231.324C262.424 231.418 262.658 231.518 262.882 231.618C263.11 231.712 263.334 231.812 263.558 231.917C263.746 231.995 263.929 232.079 264.107 232.163C264.468 232.325 264.829 232.488 265.18 232.656C265.352 232.74 265.525 232.818 265.698 232.902L266.095 233.091C266.151 233.122 266.206 233.148 266.262 233.175C266.695 233.384 267.111 233.594 267.518 233.804C267.899 234.003 268.27 234.202 268.626 234.396C269.048 234.627 269.45 234.852 269.836 235.083C269.912 235.125 269.989 235.172 270.065 235.214C270.324 235.366 270.573 235.523 270.822 235.675C271.311 235.985 271.773 236.289 272.205 236.593C272.632 236.897 273.029 237.196 273.4 237.494C273.4 237.5 273.4 237.5 273.405 237.5C273.583 237.646 273.756 237.793 273.919 237.935C274.183 238.171 274.427 238.396 274.651 238.627C274.726 238.698 274.797 238.773 274.864 238.852C274.894 238.877 274.921 238.906 274.945 238.936C275.052 239.057 275.159 239.177 275.261 239.298C275.383 239.445 275.495 239.591 275.601 239.738C275.652 239.812 275.708 239.885 275.754 239.958C275.815 240.047 275.876 240.142 275.927 240.231C275.972 240.304 276.013 240.383 276.054 240.456C276.162 240.645 276.253 240.843 276.328 241.049C276.384 241.188 276.43 241.332 276.465 241.479C276.504 241.618 276.533 241.76 276.552 241.903Z" fill="black"/>
</g>
<defs>
<clipPath id="clip0_254_18">
<rect width="400" height="300" fill="white"/>
</clipPath>
</defs>
</svg>
