<svg xmlns="http://www.w3.org/2000/svg" width="40" height="40" viewBox="0 0 40 40" fill="none">
  <path d="M7.09454 20.6187C7.2964 20.6627 7.52244 20.6836 7.75195 20.6741C8.03142 20.6645 8.31342 20.6014 8.51717 20.4969C8.72408 20.3931 8.84342 20.2532 8.87852 20.1149C8.90839 20.0016 8.885 19.8889 8.8243 19.7835C8.87219 19.7815 8.91566 19.7804 8.94775 19.7804C8.99738 19.7804 9.02584 19.7819 9.0271 19.7819C9.65448 19.8243 10.9979 20.6619 10.9672 21.0838C10.9511 21.3043 10.6943 21.5547 10.2969 21.7371C9.98405 21.8807 9.63677 21.9583 9.34356 21.9493C8.88531 21.9358 7.96219 21.6222 7.40657 21.2915C7.13074 21.1273 6.98374 20.9795 7.00318 20.8862C7.02294 20.7911 7.05424 20.7023 7.09454 20.6187ZM7.84648 19.9763C8.18301 19.8423 8.53598 19.7991 8.76755 19.7858C8.74937 19.8932 8.72218 19.9959 8.66544 20.0922C8.59668 20.2098 8.48097 20.3152 8.32006 20.3972C8.15914 20.4788 7.95254 20.5382 7.71797 20.5659C7.52592 20.5895 7.3209 20.5948 7.10751 20.5905C7.24629 20.3226 7.49351 20.1166 7.84648 19.9763ZM9.32506 22.1082C9.34561 22.1088 9.36616 22.1091 9.38702 22.1091C9.749 22.1091 10.154 22.0176 10.5088 21.8548C10.9665 21.6447 11.2628 21.3514 11.282 21.0897C11.3193 20.5758 9.84353 19.6765 9.06867 19.6243C8.86761 19.6108 8.22047 19.6249 7.65158 19.8512C7.10909 20.067 6.78552 20.4095 6.69004 20.8695C6.65321 21.047 6.92873 21.253 7.16647 21.3945C7.72113 21.7247 8.72092 22.0903 9.32506 22.1082ZM18.55 4.60905L18.538 4.62151C18.5423 4.60681 18.5541 4.59795 18.5524 4.60082L18.5557 4.6025L18.55 4.60905ZM24.5315 22.7406L24.532 22.7403L24.5326 22.7408L24.5315 22.7406ZM38.8221 2.72178C38.0566 5.18721 37.0373 9.44752 36.8636 10.7096C36.8205 11.0234 36.0317 12.7244 35.398 14.0912C34.5871 15.8407 34.3511 16.3703 34.3511 16.5082C34.3506 16.5658 34.2819 16.8742 34.2156 17.1724C33.9343 18.4359 33.786 19.2749 33.7607 19.8264C31.9465 19.0364 28.1056 17.1985 27.7354 16.8214C27.5505 16.3111 25.637 15.1456 24.2144 15.1456C23.3947 15.1456 19.0142 14.4472 17.432 14.1672C16.4102 12.5568 15.5546 10.8257 15.4713 10.1936C15.4066 9.70609 14.7118 8.06926 14.1535 6.75409C13.8915 6.1372 13.6653 5.60439 13.6046 5.42064C13.5394 5.22291 13.2969 4.79392 12.9894 4.25073C12.4488 3.29476 11.5439 1.69474 11.6544 1.27581C11.7122 1.05668 12.4188 0.678797 13.3946 0.584884C14.2175 0.505506 15.4205 0.610998 16.473 1.56377C17.5829 2.56838 18.1814 3.70443 18.6031 4.64187L18.5405 4.64922C18.5348 4.63836 18.5356 4.62933 18.538 4.62151L18.5318 4.62646C18.5008 4.65369 18.4338 4.68739 18.3673 4.71861C18.226 4.78194 18.054 4.84095 17.8739 4.89374C17.5118 4.99963 17.1119 5.08436 16.6988 5.14489C16.2857 5.20638 15.8548 5.24136 15.4209 5.23912C14.9895 5.23377 14.5477 5.18586 14.1704 5.06184C14.5041 5.21437 14.9476 5.30309 15.3998 5.34421C15.8546 5.38302 16.3231 5.38231 16.7826 5.35204C17.2434 5.32233 17.6982 5.26675 18.1427 5.18035C18.3545 5.13866 18.5636 5.09003 18.7719 5.02526C18.7912 5.06966 18.8105 5.11438 18.8293 5.15759C19.1407 5.87958 19.3656 6.4012 19.7458 6.70003C20.2006 7.05747 20.8371 8.236 21.3221 9.20307C21.1308 9.31008 20.8698 9.40439 20.5847 9.4805C20.1727 9.59158 19.7096 9.67128 19.2378 9.73556C18.7645 9.79937 18.2767 9.84473 17.7845 9.87811C17.2919 9.91005 16.7943 9.93265 16.2939 9.93049C16.7896 9.96786 17.293 9.98064 17.7973 9.9836C18.3015 9.98519 18.8084 9.97449 19.3162 9.94319C19.8236 9.91101 20.3338 9.86325 20.8373 9.77086C21.0688 9.72805 21.2993 9.67503 21.5219 9.60643C21.5838 9.73261 21.6418 9.85175 21.6946 9.96028C21.8679 10.3158 22.0044 10.5964 22.0969 10.7596C22.2177 10.9734 22.3475 11.3928 22.4851 11.8368C22.7837 12.801 23.0001 13.4052 23.3074 13.741C22.8526 13.8655 22.395 13.9885 21.9344 14.1073C21.6101 14.1906 21.2841 14.2725 20.9544 14.3496C20.7895 14.3881 20.6236 14.4257 20.4555 14.46C20.3713 14.4768 20.2865 14.4935 20.2007 14.5074C20.1147 14.5214 20.0276 14.5357 19.9361 14.5349C20.0264 14.5445 20.1212 14.5388 20.2119 14.5333C20.3038 14.5276 20.3943 14.5192 20.4852 14.5107C20.6658 14.4928 20.8452 14.4716 21.0236 14.4494C21.3809 14.4048 21.7348 14.3552 22.0877 14.304C22.6603 14.2206 23.2282 14.132 23.7966 14.0406C24.4944 14.2379 26.0153 14.1533 27.0696 13.9392C27.3001 13.8923 27.5081 13.8397 27.6943 13.7821C28.047 13.8622 28.3996 13.9408 28.755 14.0178C29.3608 14.1489 29.9707 14.2757 30.5862 14.3953C31.2017 14.5146 31.8225 14.6279 32.4549 14.7242C32.7707 14.7724 33.09 14.8162 33.4144 14.8489C33.7365 14.88 34.0734 14.9087 34.3976 14.8755C34.0696 14.8909 33.7501 14.845 33.4401 14.7978C33.1295 14.7487 32.8257 14.6888 32.5255 14.6247C31.9249 14.4966 31.338 14.3524 30.7569 14.2022C30.1758 14.0518 29.6019 13.8946 29.0322 13.7333C28.7927 13.6654 28.5539 13.5962 28.3157 13.5267C28.5504 13.3941 28.7015 13.2454 28.7618 13.0833C28.8817 12.7601 29.7484 11.4427 30.5867 10.1685C30.5963 10.1539 30.6055 10.1398 30.6153 10.1252C30.6395 10.1314 30.6632 10.1381 30.6878 10.1439C30.9237 10.2034 31.1657 10.252 31.4086 10.2967C31.8952 10.3846 32.3931 10.4452 32.8916 10.4894L33.2667 10.5183C33.3913 10.5277 33.5176 10.5317 33.6426 10.5387C33.8921 10.554 34.1437 10.5563 34.3933 10.5626C34.6429 10.5681 34.8933 10.5626 35.1416 10.563C35.3906 10.5573 35.6387 10.5484 35.8856 10.5412C35.6381 10.5307 35.3912 10.522 35.1459 10.5101C34.9009 10.4921 34.6559 10.4801 34.414 10.4575C34.1725 10.4338 33.9306 10.4143 33.6942 10.3822C33.5756 10.3669 33.4563 10.3545 33.3394 10.337L32.9901 10.2839C32.529 10.2082 32.08 10.1178 31.6592 10.006C31.45 9.9495 31.2447 9.89024 31.0538 9.82332C30.9863 9.80112 30.9224 9.77725 30.8597 9.75313C32.1569 7.77698 32.7701 6.80225 32.7701 6.54766C32.7701 6.46772 32.8456 6.25035 32.9623 5.96047C33.1845 5.98722 33.4063 6.01174 33.6309 6.03474C34.056 6.07786 34.4842 6.1134 34.916 6.1372C35.3472 6.16051 35.7837 6.17241 36.2192 6.157C36.4365 6.1479 36.6543 6.13169 36.8636 6.09934C37.0712 6.06716 37.2751 6.01661 37.4202 5.93691C37.2507 6.00335 37.0449 6.03362 36.8407 6.04768C36.6352 6.06165 36.4265 6.05973 36.2198 6.05127C35.8053 6.03154 35.3967 5.98587 34.9941 5.92949C34.5917 5.87263 34.1949 5.80475 33.8037 5.72968C33.5735 5.68576 33.3429 5.63865 33.1164 5.58985C33.3227 5.1068 33.5865 4.52624 33.8089 4.03711C34.2385 3.09216 34.644 2.19952 34.7191 1.8828C34.8259 1.43281 35.4494 1.23868 35.8112 1.16305C36.5472 1.00941 37.417 1.06714 38.0279 1.31031C38.7353 1.59164 39.0173 2.09291 38.8221 2.72178ZM35.3849 21.7787C35.5244 22.1312 34.993 23.9692 34.5659 25.4462C34.2033 26.7001 33.8606 27.8844 33.8399 28.3892C33.8016 29.3161 31.4785 31.8948 30.3625 32.7691C29.6732 33.0555 28.7616 33.2161 27.8012 33.2461C26.8102 33.281 25.7836 33.2006 24.7955 33.0535C23.8056 32.9052 22.8454 32.69 21.9366 32.4271C21.0288 32.1627 20.1699 31.8506 19.3783 31.4961C20.1049 31.8842 20.9128 32.2368 21.7871 32.5461C22.663 32.8541 23.6066 33.1189 24.6137 33.3199C25.62 33.5192 26.6966 33.6575 27.8219 33.6688C28.383 33.6737 28.957 33.6465 29.5183 33.5677C29.533 33.5657 29.5475 33.5632 29.5622 33.5612C29.4043 34.0421 29.5436 34.698 29.6985 35.4212C29.8071 35.9286 29.9196 36.4534 29.8877 36.8404C29.8603 37.171 28.8147 37.8011 26.5395 38.4637C26.1504 38.5771 25.7516 38.683 25.3524 38.7803L22.6328 33.1875L24.3919 38.9972C23.0769 39.2714 21.8284 39.4362 20.9593 39.4362C19.9167 39.4362 18.2407 39.066 16.513 38.5819L16.0071 35.8655L15.5528 38.3032C12.9324 37.5178 10.4412 36.5791 10.1141 36.3829C9.89048 36.188 9.46954 34.9977 9.15466 33.8623C9.77983 33.9238 10.4007 33.965 11.0267 33.9967C11.9264 34.0403 12.8301 34.0562 13.7317 34.0375C14.6321 34.0184 15.535 33.9646 16.4052 33.8417C16.8392 33.78 17.265 33.7004 17.6624 33.594C18.0593 33.4878 18.4286 33.3535 18.7273 33.1875C18.3956 33.3368 18.0086 33.4478 17.6036 33.5301C17.1977 33.6125 16.773 33.6672 16.3438 33.7043C15.4839 33.7778 14.6065 33.7833 13.7371 33.7556C12.8671 33.7277 12.0015 33.666 11.1492 33.5783C10.3312 33.4933 9.51237 33.3866 8.75206 33.2468C7.52133 32.8081 5.9046 30.9591 4.79226 29.3589C4.29466 28.6429 3.97694 26.8002 3.74489 25.4546C3.60959 24.6687 3.51174 24.1009 3.40552 23.8683C3.26626 23.5636 3.2533 22.9737 3.24176 22.4532C3.23322 22.0662 3.22485 21.7229 3.17331 21.4704C3.8938 21.4544 5.39783 21.4121 5.87757 21.3985C7.26494 21.9569 8.55937 22.4307 8.94759 22.457C9.09444 22.4668 9.23907 22.4717 9.38102 22.4717C10.0895 22.4717 10.7305 22.3496 11.2181 22.1183C11.8175 21.8338 12.1387 21.4015 12.0772 20.9617C12.042 20.7109 11.0771 19.9147 9.86677 19.0312C12.2176 20.5646 12.949 20.8536 13.2973 20.8765C13.5262 20.8915 13.7456 20.899 13.9552 20.899C14.8256 20.899 15.5223 20.7697 15.9921 20.5184C16.5398 20.2251 16.7439 19.7889 16.6027 19.2203C17.4927 19.3973 18.4427 19.5341 19.4116 19.5927C19.356 19.64 19.2969 19.6874 19.2325 19.7346C19.0155 19.8932 18.7737 20.0506 18.5113 20.201C17.992 20.5041 17.4203 20.7907 16.8191 21.0612C15.6164 21.6029 14.2941 22.0821 12.8906 22.4909C12.1894 22.6962 11.4618 22.8785 10.7154 23.0394C9.96888 23.1997 9.20382 23.3416 8.41758 23.4472C7.63245 23.5536 6.83199 23.6369 6.01967 23.68C5.20735 23.7215 4.38729 23.7291 3.56833 23.7007C4.38239 23.7525 5.20656 23.7687 6.03058 23.7503C6.85444 23.7302 7.67403 23.6694 8.4835 23.5842C9.2944 23.4997 10.0889 23.3778 10.8686 23.2361C11.6482 23.0938 12.4131 22.9288 13.1541 22.7393C14.6379 22.362 16.0498 21.9098 17.3578 21.3847C18.0122 21.1222 18.6407 20.8417 19.231 20.5344C19.5281 20.382 19.8103 20.2196 20.0795 20.0448C20.214 19.9573 20.3423 19.8648 20.4637 19.7629C20.4992 19.7301 20.5353 19.6995 20.5701 19.6663C21.3595 19.7937 21.9858 20.1523 22.5139 20.5491C22.3927 20.5794 22.2724 20.6101 22.151 20.6416C21.8358 20.7241 21.5264 20.8107 21.2198 20.8997C20.6077 21.0782 20.0128 21.2706 19.4353 21.475C18.2805 21.8838 17.2018 22.3484 16.2404 22.8685C15.7643 23.1308 15.3203 23.4077 14.916 23.6984C14.5132 23.9898 14.1648 24.2994 13.8626 24.6188C13.5594 24.9383 13.3362 25.2753 13.1605 25.6156C12.9883 25.9574 12.908 26.3078 12.8683 26.6567C12.9543 26.3094 13.0803 25.9656 13.2947 25.6348C13.5126 25.3055 13.7744 24.9839 14.1112 24.6827C14.4471 24.3817 14.8246 24.0933 15.2517 23.8246C15.6804 23.5565 16.1447 23.3039 16.6374 23.0667C17.6321 22.5965 18.73 22.1845 19.8936 21.829C20.4021 21.6736 20.9221 21.5282 21.4517 21.3931C21.4283 21.4042 21.4033 21.4149 21.3804 21.4261C20.7184 21.7434 20.1647 22.0997 19.6758 22.4726C18.7043 23.221 17.9833 24.0373 17.4803 24.8835C16.994 25.731 16.7259 26.617 16.847 27.4976C16.9097 27.9368 17.0762 28.3739 17.3833 28.7851C17.6887 29.1961 18.1411 29.5791 18.7273 29.8985C18.1758 29.5634 17.7715 29.173 17.5153 28.7619C17.2571 28.3505 17.1408 27.9202 17.1258 27.4911C17.0996 26.6309 17.4527 25.7779 18.0111 24.9704C18.5849 24.165 19.3686 23.3962 20.3616 22.715C20.8594 22.376 21.4137 22.059 22.0316 21.7938C22.3373 21.6586 22.6683 21.546 23.003 21.448C23.156 21.4068 23.3109 21.3718 23.466 21.342C23.7435 21.5777 24.0024 21.78 24.2848 21.9227L24.2934 21.9186L24.3515 22.5926L24.532 22.7403L24.5405 22.743L24.5815 22.7568L24.6723 22.789L24.8595 22.8586L25.2359 23.0012L25.9914 23.2891C26.496 23.4807 27.0032 23.6712 27.516 23.8578C28.0291 24.0442 28.5473 24.2276 29.079 24.401C29.3453 24.4873 29.6149 24.5713 29.8924 24.6486C30.0311 24.6871 30.1717 24.724 30.3173 24.7558C30.4629 24.7865 30.6118 24.8187 30.7705 24.8243C30.6142 24.8118 30.4733 24.7737 30.3353 24.7372C30.1977 24.6997 30.0652 24.657 29.9348 24.613C29.6741 24.525 29.4222 24.4302 29.1738 24.3334C28.6773 24.1388 28.1957 23.9347 27.719 23.7277C27.2426 23.5203 26.7721 23.3096 26.3036 23.0971L25.601 22.7777L25.2472 22.6176L25.0666 22.5374L25.0138 22.5149L25.04 22.2099L27.7503 22.7114L29.5072 23.0291L30.3892 23.1836C30.6847 23.2322 30.9774 23.2881 31.2822 23.3208C30.988 23.2713 30.7106 23.1996 30.4283 23.1345L29.5878 22.9316L27.9143 22.5169L25.4494 21.7797L25.0977 21.5374C24.8396 21.407 24.5143 21.1327 24.1951 20.8563C23.3708 20.1422 22.2417 19.1643 20.2726 19.0615L20.23 19.0602C17.8714 19.0288 15.4967 18.3958 13.9195 17.8703C11.7998 17.164 10.1439 15.87 10.1497 14.924C10.1518 14.5993 10.3595 14.3508 10.7651 14.1826C10.8911 14.1775 11.0265 14.1608 11.1716 14.1383C10.9331 14.404 10.8598 14.7386 11.2341 15.0537C11.9093 15.6222 14.4919 16.2569 15.9075 16.2569C16.084 16.2569 16.2422 16.247 16.3765 16.226C17.5785 16.0372 17.7189 15.3731 17.8167 14.8272C19.6386 15.1371 22.5904 15.5921 23.8316 15.6903C23.6481 15.7817 23.4818 15.881 23.3362 15.9873C23.1745 16.107 23.0389 16.2355 22.9416 16.3709C22.8436 16.5061 22.7869 16.648 22.7728 16.7901C22.8101 16.649 22.8892 16.5119 23.0061 16.3842C23.1223 16.2565 23.2741 16.138 23.4479 16.0295C23.6234 15.9216 23.8205 15.8232 24.035 15.7369C24.0606 15.7267 24.087 15.7172 24.1133 15.7074C24.1498 15.7086 24.1841 15.7094 24.2144 15.7094C25.0095 15.7094 26.5728 16.6615 26.6365 16.919C26.6504 16.9747 26.6703 17.0522 26.9966 17.269C26.9787 17.3157 26.9509 17.3614 26.91 17.4055C26.8523 17.4685 26.7712 17.5275 26.6749 17.5815C26.5749 17.6336 26.4625 17.6821 26.3381 17.7236C26.0909 17.8082 25.8068 17.8686 25.5163 17.9177C25.818 17.8913 26.1209 17.8534 26.4065 17.785C26.55 17.7516 26.6869 17.7092 26.8162 17.6592C26.9427 17.6073 27.059 17.5462 27.1528 17.4749C27.1793 17.4551 27.2032 17.4344 27.2255 17.4133C27.7003 17.6995 28.5684 18.1605 30.1672 18.9286C31.2815 19.4642 33.1289 20.3202 33.8788 20.5984C33.9014 20.6339 33.9265 20.6647 33.9551 20.6905L34.0125 20.7419L34.1037 20.7774C34.1141 20.7815 35.1527 21.1913 35.3849 21.7787ZM3.10708 20.2254C3.71739 20.4979 4.46806 20.8202 5.22964 21.1343C4.46411 21.1556 3.56738 21.1798 3.10203 21.19C3.07326 20.9791 3.08464 20.5778 3.10708 20.2254ZM1.59784 18.988C1.19176 18.6655 0.837996 17.2164 1.47185 16.9648C1.60131 16.9134 1.72888 16.8579 1.85201 16.8041C2.63667 16.4622 3.31463 16.1668 4.96851 16.5891L5.78083 16.7965L6.07484 16.9424C8.07552 18.1785 11.4723 20.6365 11.5205 20.9816C11.5704 21.3377 11.3144 21.6858 10.8359 21.9128C10.3686 22.1347 9.7411 22.2262 9.02505 22.1779C8.5717 22.1292 5.4669 20.8132 3.14707 19.7441L2.95328 19.6548C2.08216 19.2533 1.66312 19.0344 1.59784 18.988ZM11.9648 18.9343C12.1276 18.9901 12.335 19.0165 12.5326 19.0205C12.7888 19.0255 13.0433 19.0003 13.2795 18.9544C13.516 18.9086 13.7361 18.8402 13.9203 18.7505C14.0071 18.7081 14.0823 18.6589 14.1414 18.605C14.4791 18.7062 14.8382 18.8071 15.2165 18.9044C15.5674 19.1351 15.851 19.4116 15.8497 19.703C15.8487 19.8829 15.6257 20.0143 15.4387 20.093C14.9719 20.2892 14.2137 20.3866 13.594 20.3296C12.6953 20.2471 11.8282 19.3399 11.7933 19.2168C11.8303 19.1109 11.8897 19.0174 11.9648 18.9343ZM14.0178 18.5679C13.9451 18.6043 13.8637 18.636 13.781 18.6658C13.5945 18.7302 13.3897 18.7815 13.1788 18.8229C12.9675 18.8638 12.7487 18.896 12.5247 18.9109C12.3507 18.9213 12.1741 18.9225 11.9947 18.9028C12.3159 18.5773 12.8917 18.4251 13.3451 18.354C13.5566 18.4241 13.781 18.4958 14.0178 18.5679ZM16.0765 19.3899C16.0087 19.2684 15.9061 19.1522 15.7824 19.0428C15.8546 19.0597 15.9267 19.0768 16.0002 19.0933C16.0372 19.1973 16.0626 19.2961 16.0765 19.3899ZM7.2896 14.1583C8.20372 14.0162 8.99644 14.0034 9.53909 14.0289C9.20825 14.273 9.03595 14.5746 9.03374 14.9224C9.02694 16.0148 10.7275 17.4167 13.0319 18.2459C12.4055 18.3718 11.6703 18.6371 11.4808 19.1964C11.4298 19.3473 12.4325 20.3846 13.5376 20.4862C13.6717 20.4984 13.8117 20.5043 13.954 20.5043C14.5595 20.5043 15.2084 20.3969 15.6399 20.2153C15.7428 20.1719 15.8295 20.1255 15.9028 20.0766C15.8227 20.1713 15.7179 20.2544 15.5864 20.3249C15.0115 20.6325 14.0635 20.6428 13.3742 20.5974C13.0481 20.5559 11.6556 19.8921 5.9947 15.9125C5.82999 15.7966 5.69626 15.7027 5.6 15.6355C5.49694 14.578 6.47997 14.2841 7.2896 14.1583ZM13.3549 13.9867C13.8971 14.1291 15.0304 14.4104 16.0089 14.5484C15.863 14.763 15.8532 14.9863 15.9948 15.19C16.1473 15.409 16.4591 15.5836 16.8669 15.6874C16.7192 15.8133 16.5125 15.9094 16.211 15.9567C15.2369 16.1101 12.3363 15.4339 11.7125 14.9087C11.4305 14.6713 11.53 14.4325 11.6629 14.274C11.766 14.1514 11.9024 14.0601 12.0184 14.0003C12.4822 13.9343 12.9958 13.8924 13.3549 13.9867ZM17.2736 14.7332L17.2669 14.7705C17.2165 15.0512 17.1645 15.3365 16.9887 15.5608C16.6468 15.4731 16.3859 15.3267 16.2581 15.1432C16.1353 14.9666 16.147 14.7716 16.2796 14.5835C16.4021 14.5975 16.5199 14.608 16.6332 14.6156C16.7981 14.6478 17.0158 14.6877 17.2736 14.7332ZM38.7184 0.867339C37.7954 0.500156 36.4872 0.411674 35.3846 0.642062C34.3849 0.850889 33.7386 1.27868 33.6112 1.81572C33.543 2.10257 33.1253 3.02189 32.7212 3.91086C32.0573 5.37144 31.6541 6.27758 31.6544 6.54447C31.6269 6.79985 30.4134 8.64415 29.5276 9.9907C28.5999 11.4008 27.7986 12.6186 27.6649 12.9794C27.5936 13.1712 27.1115 13.311 26.8301 13.3773C25.8348 13.612 24.629 13.6163 24.3688 13.5578C24.0869 13.3616 23.763 12.3158 23.5877 11.7496C23.4385 11.2679 23.3098 10.852 23.1697 10.6047C23.0831 10.4516 22.9421 10.1616 22.7785 9.82564C22.0661 8.36266 21.3175 6.89272 20.6847 6.39521C20.4132 6.18184 20.1844 5.65158 19.9197 5.03756C19.4685 3.99159 18.8508 2.55911 17.4475 1.28907C15.998 -0.0229885 14.155 -0.0622782 13.1858 0.030995C11.8682 0.157888 10.6851 0.682789 10.5482 1.2013C10.4176 1.69642 11.0907 2.94546 11.9165 4.40565C12.2022 4.91091 12.449 5.34709 12.5038 5.51335C12.5686 5.70988 12.7865 6.22288 13.0623 6.87228C13.5545 8.03197 14.2984 9.78443 14.3575 10.2312C14.4514 10.9428 15.3028 12.6032 16.147 13.9825C15.5361 13.8866 14.7285 13.7121 13.8697 13.4865C12.9338 13.2407 11.8341 13.4302 11.1067 13.5556C11.0023 13.5736 10.8711 13.5962 10.7791 13.6097C10.1205 13.439 8.5785 13.368 6.96145 13.6195C5.09006 13.9103 4.27158 14.6739 4.52086 15.8922C2.81371 15.6404 1.85312 16.0591 1.123 16.3773C1.00413 16.429 0.891898 16.4781 0.782356 16.5215C-0.543057 17.0476 0.0969666 18.8465 0.656374 19.2906C0.783146 19.3913 1.23744 19.6236 2.00818 19.982C1.9791 20.3325 1.92678 21.1325 2.02937 21.4009C2.10698 21.6046 2.11662 22.0392 2.12595 22.4596C2.13859 23.0355 2.15171 23.631 2.318 23.995C2.40668 24.1892 2.51179 24.7982 2.63335 25.5034C2.88342 26.9555 3.19497 28.7626 3.73936 29.5455C4.44799 30.5653 6.23797 32.9416 7.9723 33.6553C8.20688 34.549 8.73483 36.3774 9.20572 36.7105C9.71565 37.0713 17.5747 40 20.9593 40C24.1112 40 30.8889 38.2431 31.0027 36.8639C31.0381 36.4347 30.9211 35.8887 30.808 35.3606C30.6501 34.6231 30.4335 33.6129 30.8581 33.377C31.9246 32.7843 34.9062 29.5973 34.9557 28.4009C34.9752 27.9313 35.3126 26.7637 35.67 25.5277C36.2661 23.4669 36.6444 22.085 36.4793 21.6681C36.2181 21.0077 35.2688 20.5399 34.914 20.3847C34.7177 19.9611 35.1718 17.9214 35.3245 17.2354C35.4211 16.8019 35.465 16.601 35.4672 16.5144C35.4957 16.353 36.0209 15.2201 36.4846 14.2198C37.3294 12.3977 37.9309 11.082 37.9769 10.7488C38.1492 9.49671 39.1627 5.2626 39.9245 2.80915C40.276 1.67693 39.3197 1.10659 38.7184 0.867339Z" fill="white"/>
</svg>